<svg width="24" height="24" viewBox="0 0 24 24" fill="none" xmlns="http://www.w3.org/2000/svg">
  <path d="M21 16V8.00002M21 16L12 20M21 16L16.5 18M3 16V8.00002M3 16L12 20M3 16L7.5 18M12 4V11M12 4L3 8.00002M12 4L21 8.00002M12 11V20M12 11L7.5 13M12 11L16.5 13M3 8.00002L7.5 10M3 8.00002L12 4M21 8.00002L16.5 10M21 8.00002L12 4M7.5 10L7.5 15M7.5 10L12 11M16.5 10L16.5 15M16.5 10L12 11M7.5 15L7.5 18M7.5 15L12 17M16.5 15L16.5 18M16.5 15L12 17M12 17V20" stroke="#FFC107" stroke-width="2" stroke-linecap="round" stroke-linejoin="round"/>
</svg>